<svg height="512pt" viewBox="0 0 512 512" width="512pt" xmlns="http://www.w3.org/2000/svg"><path d="m512 256c0 141.386719-114.613281 256-256 256s-256-114.613281-256-256 114.613281-256 256-256 256 114.613281 256 256zm0 0" fill="#0095ff"/><path d="m512 256c0-.960938-.027344-1.914062-.035156-2.875l-91.472656-91.46875-17.230469 11.152344-72.667969-72.667969-110.054688 15.28125-15.390624 32.945313 15.984374 48.230468h145.367188l-276.636719 179.046875 134.402344 134.398438c10.398437 1.285156 20.988281 1.957031 31.734375 1.957031 141.386719 0 256-114.613281 256-256zm0 0" fill="#0050c3"/><path d="m89.863281 161.910156h173.1875v213.734375h-173.1875zm0 0" fill="#fff"/><path d="m256 161.910156h164.234375v213.734375h-164.234375zm0 0" fill="#a2d8f4"/><path d="m217.074219 133.140625h80.519531v41.371094h33v-74.371094h-146.519531v74.371094h33zm0 0" fill="#fff"/><path d="m256 133.140625h41.59375v41.371094h33v-74.371094h-74.59375zm0 0" fill="#a2d8f4"/><path d="m283.46875 206.324219h-54.9375v34.984375h-34.984375v54.933594h34.984375v34.988281h54.9375zm0 0" fill="#f40000"/><path d="m318.453125 241.308594h-34.984375v-34.984375h-27.46875v124.90625h27.46875v-34.988281h34.984375zm0 0" fill="#9b000a"/></svg>