<?xml version="1.0" encoding="iso-8859-1"?>
<!-- Generator: Adobe Illustrator 19.0.0, SVG Export Plug-In . SVG Version: 6.00 Build 0)  -->
<svg version="1.1" id="Layer_1" xmlns="http://www.w3.org/2000/svg" xmlns:xlink="http://www.w3.org/1999/xlink" x="0px" y="0px"
	 viewBox="0 0 496 496" style="enable-background:new 0 0 496 496;" xml:space="preserve">
<path style="fill:#00A6F9;" d="M496,320.8c0,96.8-78.4,175.2-175.2,175.2H175.2C78.4,496,0,417.6,0,320.8V175.2
	C0,78.4,78.4,0,175.2,0h145.6C417.6,0,496,78.4,496,175.2V320.8z"/>
<path style="fill:#0097F4;" d="M0,175.2C0,78.4,78.4,0,175.2,0h145.6C417.6,0,496,78.4,496,175.2v145.6
	c0,96.8-78.4,175.2-175.2,175.2"/>
<g>
	<path style="fill:#008BF2;" d="M320.8,0C417.6,0,496,78.4,496,175.2v145.6c0,96.8-78.4,175.2-175.2,175.2"/>
	<path style="fill:#008BF2;" d="M167.2,192h161.6c6.4,0,12-5.6,12-12s-5.6-12-12-12H167.2c-6.4,0-12,5.6-12,12
		C156,186.4,160.8,192,167.2,192z"/>
	<path style="fill:#008BF2;" d="M328.8,248H167.2c-6.4,0-12,5.6-12,12s5.6,12,12,12h161.6c6.4,0,12-5.6,12-12S335.2,248,328.8,248z"
		/>
	<path style="fill:#008BF2;" d="M328.8,336H167.2c-6.4,0-12,5.6-12,12s5.6,12,12,12h161.6c6.4,0,12-5.6,12-12
		C340,341.6,335.2,336,328.8,336z"/>
</g>
<g>
	<path style="fill:#FFFFFF;" d="M167.2,176h161.6c6.4,0,12-5.6,12-12s-5.6-12-12-12H167.2c-6.4,0-12,5.6-12,12
		C156,170.4,160.8,176,167.2,176z"/>
	<path style="fill:#FFFFFF;" d="M167.2,256h161.6c6.4,0,12-5.6,12-12s-5.6-12-12-12H167.2c-6.4,0-12,5.6-12,12
		C156,250.4,160.8,256,167.2,256z"/>
	<path style="fill:#FFFFFF;" d="M328.8,320H167.2c-6.4,0-12,5.6-12,12s5.6,12,12,12h161.6c6.4,0,12-5.6,12-12
		C340,325.6,335.2,320,328.8,320z"/>
</g>
<g>
</g>
<g>
</g>
<g>
</g>
<g>
</g>
<g>
</g>
<g>
</g>
<g>
</g>
<g>
</g>
<g>
</g>
<g>
</g>
<g>
</g>
<g>
</g>
<g>
</g>
<g>
</g>
<g>
</g>
</svg>
